<?xml version="1.0" encoding="utf-8"?>
<!-- Generator: Adobe Illustrator 26.3.1, SVG Export Plug-In . SVG Version: 6.00 Build 0)  -->
<svg version="1.1" id="Layer_1" xmlns="http://www.w3.org/2000/svg" xmlns:xlink="http://www.w3.org/1999/xlink" x="0px" y="0px"
	 viewBox="0 0 492.1 492.1" style="enable-background:new 0 0 492.1 492.1;" xml:space="preserve">
<style type="text/css">
	.st0{fill:#FFFFFF;}
</style>
<g>
	<path class="st0" d="M245.3,9.5c-94.9,0-171.9,106.4-171.9,237.7s77,237.7,171.9,237.7s171.9-106.4,171.9-237.7
		S340.2,9.5,245.3,9.5z M324.3,130.3l-12.8,53.8L282,169.4L324.3,130.3z M233.1,96l12.3-59.3L257.6,96l9.6,39l-21.9,22.2L223.5,135
		L233.1,96z M208.7,169.4l-29.6,14.7l-12.7-53.8L208.7,169.4z M136.3,362.7l-1.8-54l12.8-11.1l21.3,11.2L136.3,362.7z M184.1,397.1
		l-9.9-76l31.4,11.3L184.1,397.1z M245.3,461.8L220.7,358l24.6-18.4L270,358L245.3,461.8z M306.6,397.1l-21.5-64.7l31.4-11.3
		L306.6,397.1z M354.4,362.7L322,308.8l21.4-11.2l12.8,11.1L354.4,362.7z M245.3,327.8l-139.9-81.1l-0.1-0.1l140-81.1l140,81.1h-0.1
		l0.1,0.1L245.3,327.8z"/>
	<path class="st0" d="M253.7,226.1l5.6,28.5l-14.1,21.1l-14.1-21.1l5.3-27l-29.7-14.9c-4.8,6.8-7.6,16.3-7.6,29.6
		c0,11.5,2.4,25.4,9.9,33.3c8.6,9.1,23.8,15.8,37,15.9c9.5,0.1,23.8-4.1,34.2-13.4c8.1-7.2,12.8-21.4,12.7-37.1
		c0-10.8-4.3-20.4-11.2-27.8L253.7,226.1z"/>
</g>
</svg>
