<?xml version="1.0" encoding="UTF-8"?><svg id="Layer_1" xmlns="http://www.w3.org/2000/svg" viewBox="0 0 343.8 475.4"><defs><style>.cls-1{fill:none;}.cls-2{fill:#fff;}</style></defs><ellipse class="cls-2" cx="171.9" cy="237.7" rx="171.9" ry="237.7"/><g><polygon class="cls-1" points="170.9 156 31 237.2 170.9 318.3 310.9 237.2 170.9 156"/><polygon points="192.8 125.5 170.9 147.7 149.1 125.5 158.7 86.5 171 27.2 183.2 86.5 192.8 125.5"/><g><polygon points="134.3 159.9 104.7 174.6 92 120.8 134.3 159.9"/><polygon points="207.6 159.9 237.1 174.6 249.9 120.8 207.6 159.9"/></g><path d="M170.9,156h0L30.9,237.1l140,81.1h0l140-81.1-140-81.1h0Zm34.9,112.6c-10.4,9.3-24.7,13.5-34.2,13.4-13.2-.1-28.4-6.8-37-15.9-7.5-7.9-9.9-21.8-9.9-33.3,0-13.3,2.8-22.8,7.6-29.6l29.7,14.9-5.3,27,14.1,21.1,14.1-21.1-5.6-28.5,28-12.9c6.9,7.4,11.2,17,11.2,27.8,.1,15.7-4.6,29.9-12.7,37.1h0Z"/><g><polygon points="210.7 322.9 232.2 387.6 242.1 311.6 210.7 322.9"/><polygon points="269 288.1 247.6 299.3 280 353.2 281.8 299.2 269 288.1"/><polygon points="131.2 322.9 109.7 387.6 99.8 311.6 131.2 322.9"/><polygon points="72.9 288.1 94.2 299.3 61.9 353.2 60.1 299.2 72.9 288.1"/></g><polygon points="170.9 330.1 146.3 348.5 170.9 452.3 195.6 348.5 170.9 330.1"/></g></svg>